<svg xmlns="http://www.w3.org/2000/svg" width="157.324" height="36.357" viewBox="0 0 157.324 36.357">
  <g id="Grupo_49677" data-name="Grupo 49677" transform="translate(0 168)">
    <path id="Caminho_1" data-name="Caminho 1" d="M56.664-159.091a13.724,13.724,0,0,0-13.724,13.724,13.724,13.724,0,0,0,13.724,13.724,13.724,13.724,0,0,0,13.724-13.724A13.724,13.724,0,0,0,56.664-159.091Zm100.428,4.053-3.3-3.3a.773.773,0,0,0-1.093,0l-8.579,8.579-8.609-8.609a.773.773,0,0,0-1.093,0l-3.3,3.3a.773.773,0,0,0,0,1.093l8.609,8.609-8.6,8.6a.773.773,0,0,0,0,1.093l3.3,3.3a.773.773,0,0,0,1.093,0l8.6-8.6,8.585,8.585a.773.773,0,0,0,1.093,0l3.3-3.3a.773.773,0,0,0,0-1.093l-8.585-8.585,8.579-8.579A.773.773,0,0,0,157.092-155.038Zm-54.114-3.54a.772.772,0,0,0-.546.226l-5.985,5.985v19.439a.773.773,0,0,0,.773.773h4.665a.773.773,0,0,0,.773-.773v-19.439h6.573a.773.773,0,0,0,.773-.773v-4.666a.773.773,0,0,0-.773-.773ZM89.195-153.14v-4.665a.773.773,0,0,0-.773-.773H81.849v-8.649a.773.773,0,0,0-.773-.773H76.41a.773.773,0,0,0-.773.773v28.556a.773.773,0,0,0,.226.546l5.743,5.743a.773.773,0,0,0,.546.226h6.268a.773.773,0,0,0,.773-.773v-4.665a.773.773,0,0,0-.773-.773H81.849v-14h6.573A.773.773,0,0,0,89.195-153.14Zm33.655,20.985h-4.665a.773.773,0,0,1-.773-.773v-24.878a.773.773,0,0,1,.773-.773h4.665a.773.773,0,0,1,.773.773v24.878A.773.773,0,0,1,122.85-132.155Zm-104.686-8.3L6.728-150.638a.153.153,0,0,0-.254.114v17.6a.763.763,0,0,1-.764.763H.764A.763.763,0,0,1,0-132.92V-152.4a.763.763,0,0,1,.224-.54l5.413-5.413a.763.763,0,0,1,1.045-.033l11.485,10.126a.764.764,0,0,0,1.01,0l11.485-10.126a.763.763,0,0,1,1.045.033l5.413,5.413a.763.763,0,0,1,.224.54v19.481a.763.763,0,0,1-.764.763H31.632a.763.763,0,0,1-.764-.763v-17.6a.153.153,0,0,0-.254-.114L19.179-140.459A.764.764,0,0,1,18.163-140.459Zm38.5,2.871a7.779,7.779,0,0,1-7.779-7.779,7.779,7.779,0,0,1,7.779-7.779,7.779,7.779,0,0,1,7.779,7.779A7.779,7.779,0,0,1,56.664-137.588Z" transform="translate(0)" fill="#fff"/>
  </g>
</svg>
