<svg width="250" height="64" viewBox="0 0 250 64" fill="none" xmlns="http://www.w3.org/2000/svg">
<path d="M191.329 13.53C190.657 9.70267 193.07 6.01089 196.846 5.09013L215.132 0.630149C218.576 -0.21005 222.173 -0.21005 225.617 0.630149L243.903 5.09013C247.678 6.01089 250.092 9.70268 249.42 13.53L243.717 44.9325C243.408 46.6912 242.472 48.2782 241.082 49.3991L225.004 62.3652C222.302 64.5443 218.447 64.5443 215.745 62.3652L199.667 49.3991C198.277 48.2782 197.341 46.6912 197.032 44.9325L191.329 13.53Z" fill="#4C4C4C"/>
<path fill-rule="evenodd" clip-rule="evenodd" d="M196.654 5.09017C192.879 6.01094 190.466 9.70275 191.137 13.5301L196.841 44.9328C197.149 46.6915 198.085 48.2786 199.475 49.3995L215.553 62.3657C218.255 64.5448 222.111 64.5448 224.813 62.3657L235.374 53.8493C235.653 53.6237 235.477 53.1588 235.118 53.158C233.47 53.1542 231.884 52.921 230.362 52.4559L230.356 52.4541L230.35 52.4523C227.953 51.6575 225.792 50.3739 223.868 48.6062L223.864 48.6021L223.859 48.5979C221.971 46.7779 220.37 44.473 219.051 41.6947L219.048 41.6883C217.77 38.8997 216.852 35.73 216.291 32.1841C215.723 28.5963 215.615 25.2974 215.976 22.2912L215.977 22.2862C216.373 19.2357 217.187 16.5683 218.429 14.2944L218.43 14.2931C219.707 11.9728 221.368 10.0803 223.414 8.62401C225.5 7.1145 227.933 6.14424 230.701 5.70585C233.467 5.26771 236.06 5.44135 238.47 6.23929C240.908 6.98522 243.074 8.272 244.965 10.0936C246.245 11.3025 247.384 12.7468 248.383 14.422C248.561 14.7214 249.027 14.6449 249.089 14.302L249.229 13.5301C249.901 9.70275 247.488 6.01094 243.712 5.09017L225.426 0.630154C221.981 -0.210051 218.385 -0.210051 214.94 0.630154L196.654 5.09017ZM201.76 18.585L201.763 18.5807C202.584 17.5331 203.159 16.3819 203.493 15.1243C203.773 14.065 203.859 12.96 203.746 11.806C203.685 11.1839 204.095 10.5775 204.742 10.4749L209.69 9.69127C210.33 9.58988 210.933 10.034 211.035 10.6833L217.937 54.2566C218.04 54.9059 217.604 55.5144 216.964 55.6158L211.826 56.4296C211.186 56.5309 210.584 56.0868 210.481 55.4375L205.633 24.8286C205.623 24.7658 205.581 24.7111 205.494 24.6856C205.404 24.6591 205.315 24.6816 205.257 24.7408C204.051 25.9648 202.634 26.9599 201.118 27.73C200.199 28.1973 199.164 27.573 199.009 26.5976L198.384 22.647C198.281 21.9956 198.597 21.3799 199.112 21.0472C200.127 20.3923 201.033 19.5534 201.756 18.5894L201.76 18.585Z" fill="white"/>
<path d="M245.056 36.5061C245.429 34.0106 245.355 31.0682 244.816 27.6661C243.971 22.3269 242.39 18.4419 240.127 15.9395L240.125 15.9369C237.875 13.4153 235.135 12.4266 231.848 12.9472C228.561 13.4678 226.261 15.2547 224.901 18.3482L224.899 18.3513C223.52 21.4306 223.217 25.6139 224.063 30.9531C224.908 36.2908 226.492 40.1988 228.764 42.7453C231.005 45.2233 233.741 46.193 237.031 45.672C240.321 45.151 242.624 43.383 243.99 40.3336C244.354 39.5048 244.643 38.5998 244.854 37.6177L245.056 36.5061Z" fill="white"/>
<path d="M11.4482 47.8601C9.77084 47.8601 8.21924 47.6295 6.79346 47.1682C5.4096 46.665 4.21446 45.994 3.20802 45.1553C2.20158 44.2747 1.40482 43.2473 0.817731 42.0731C0.272577 40.857 0 39.5151 0 38.0473V37.7328C0 30.6458 6.62572 27.1023 19.8772 27.1023H21.6594C22.2384 27.1023 22.7078 26.633 22.7078 26.054V25.2782C22.7078 23.5169 22.0368 22.133 20.6949 21.1266C19.3949 20.0782 17.5917 19.554 15.2853 19.554H15.1595C13.3982 19.554 11.5531 19.8686 9.62406 20.4976C8.0701 20.9705 6.625 21.5931 5.28874 22.3654C4.76557 22.6678 4.08638 22.5079 3.78582 21.9837L2.1347 19.1039C1.85554 18.6169 2.00841 17.9947 2.49263 17.7109C4.29402 16.655 6.18891 15.8016 8.17731 15.1509C10.5257 14.3541 12.9579 13.9557 15.474 13.9557H15.7256C17.5288 13.9557 19.2272 14.1864 20.8207 14.6477C22.4142 15.1089 23.7981 15.8218 24.9722 16.7863C26.1464 17.7089 27.069 18.8831 27.74 20.3089C28.4109 21.6927 28.7464 23.3072 28.7464 25.1524V41.2554C28.7464 42.2618 28.8512 43.3102 29.0609 44.4005C29.1613 44.9025 29.2761 45.3853 29.4054 45.8488C29.6026 46.5562 29.0917 47.294 28.3574 47.294H24.3893C23.9781 47.294 23.5991 47.055 23.4772 46.6624C23.3739 46.3296 23.2851 45.953 23.211 45.5327C23.2017 45.4769 23.1925 45.4212 23.1834 45.3656C23.0455 44.5207 22.0015 44.1306 21.3105 44.6358C20.1442 45.4885 18.8907 46.1858 17.5498 46.7279C15.6208 47.4827 13.5869 47.8601 11.4482 47.8601ZM12.266 42.3876C14.4046 42.3876 16.3756 41.9683 18.1788 41.1296C19.8479 40.3532 21.2654 39.3614 22.4315 38.1539C22.6123 37.9667 22.7078 37.7145 22.7078 37.4543V32.8684C22.7078 32.2894 22.2384 31.82 21.6594 31.82H20.632C15.5998 31.82 11.9305 32.3023 9.62406 33.2668C7.31764 34.1893 6.16443 35.6361 6.16443 37.607V37.7957C6.16443 39.1377 6.70959 40.2489 7.7999 41.1296C8.93214 41.9683 10.4208 42.3876 12.266 42.3876Z" fill="white"/>
<path d="M32.9766 15.6331C32.9766 15.0541 33.446 14.5848 34.025 14.5848H37.1442C37.5873 14.5848 37.9857 14.8625 38.105 15.2892C38.2281 15.7293 38.3428 16.2284 38.4491 16.7863C38.4537 16.8057 38.4583 16.825 38.4629 16.8443C38.6719 17.7304 39.8842 18.102 40.5893 17.5258C41.599 16.7007 42.7308 16.0139 43.9845 15.4654C45.9974 14.5428 48.22 14.0815 50.6522 14.0815H50.9038C53.1683 14.0815 55.265 14.5009 57.194 15.3396C59.123 16.1363 60.7795 17.2686 62.1633 18.7363C63.5891 20.1621 64.7004 21.9024 65.4972 23.9572C66.2939 25.9701 66.6923 28.1926 66.6923 30.6249V31.2539C66.6923 33.6861 66.2939 35.9296 65.4972 37.9844C64.7004 39.9973 63.5891 41.7376 62.1633 43.2053C60.7795 44.6311 59.123 45.7634 57.194 46.6021C55.265 47.3988 53.1683 47.7972 50.9038 47.7972H50.6522C48.3038 47.7972 46.1442 47.3779 44.1732 46.5392C43.0972 46.0713 42.1059 45.499 41.1994 44.8224C40.4333 44.2504 39.204 44.7557 39.204 45.7118V58.8261C39.204 59.4051 38.7346 59.8745 38.1556 59.8745H34.025C33.446 59.8745 32.9766 59.4051 32.9766 58.8261V15.6331ZM49.8974 42.3247C53.0006 42.3247 55.4747 41.3183 57.3198 39.3054C59.2069 37.2925 60.1505 34.5877 60.1505 31.191V30.6878C60.1505 27.291 59.2069 24.5862 57.3198 22.5734C55.4747 20.5605 53.0006 19.554 49.8974 19.554H49.52C46.4168 19.554 43.9216 20.5605 42.0346 22.5734C40.1475 24.5862 39.204 27.291 39.204 30.6878V31.191C39.204 34.5877 40.1475 37.2925 42.0346 39.3054C43.9216 41.3183 46.4168 42.3247 49.52 42.3247H49.8974Z" fill="white"/>
<path d="M86.0643 47.7972C83.5901 47.7972 81.3256 47.3988 79.2708 46.6021C77.216 45.7634 75.4338 44.6102 73.9241 43.1424C72.4564 41.6747 71.3032 39.9344 70.4645 37.9215C69.6258 35.9087 69.2064 33.6861 69.2064 31.2539V30.6249C69.2064 28.1926 69.6258 25.9701 70.4645 23.9572C71.3032 21.9443 72.4564 20.204 73.9241 18.7363C75.4338 17.2686 77.216 16.1363 79.2708 15.3396C81.3256 14.5009 83.5901 14.0815 86.0643 14.0815H86.4417C88.9158 14.0815 91.1803 14.5009 93.2351 15.3396C95.29 16.1363 97.0512 17.2686 98.5189 18.7363C99.9867 20.204 101.14 21.9443 101.979 23.9572C102.817 25.9701 103.237 28.1926 103.237 30.6249V31.2539C103.237 33.6861 102.817 35.9087 101.979 37.9215C101.14 39.9344 99.9867 41.6747 98.5189 43.1424C97.0512 44.6102 95.29 45.7634 93.2351 46.6021C91.1803 47.3988 88.9158 47.7972 86.4417 47.7972H86.0643ZM86.3159 42.3876C87.8675 42.3876 89.2723 42.115 90.5303 41.5699C91.8303 41.0247 92.9416 40.2699 93.8642 39.3054C94.7867 38.299 95.4996 37.1038 96.0029 35.72C96.5061 34.3361 96.7577 32.8264 96.7577 31.191V30.6878C96.7577 29.0523 96.5061 27.5426 96.0029 26.1588C95.4996 24.7749 94.7867 23.6008 93.8642 22.6363C92.9416 21.6298 91.8303 20.854 90.5303 20.3089C89.2723 19.7637 87.8675 19.4911 86.3159 19.4911H86.1272C84.6175 19.4911 83.2127 19.7637 81.9127 20.3089C80.6547 20.854 79.5644 21.6298 78.6418 22.6363C77.7192 23.6008 77.0063 24.7749 76.5031 26.1588C75.9999 27.5426 75.7483 29.0523 75.7483 30.6878V31.191C75.7483 32.8264 75.9999 34.3361 76.5031 35.72C77.0063 37.1038 77.7192 38.299 78.6418 39.3054C79.5644 40.2699 80.6547 41.0247 81.9127 41.5699C83.2127 42.115 84.6175 42.3876 86.1272 42.3876H86.3159Z" fill="white"/>
<path d="M118.637 47.8601C115.87 47.8601 113.207 47.4617 110.649 46.665C108.426 45.9363 106.441 44.9226 104.693 43.624C104.249 43.2939 104.172 42.6676 104.497 42.2197L106.617 39.3001C106.964 38.8212 107.638 38.7274 108.125 39.0637C109.557 40.0524 111.09 40.8249 112.725 41.3812C114.696 42.0521 116.708 42.3876 118.763 42.3876C120.902 42.3876 122.537 42.0312 123.67 41.3183C124.844 40.5634 125.431 39.5151 125.431 38.1732C125.431 37.3345 125.179 36.6425 124.676 36.0974C124.215 35.5522 123.544 35.0909 122.663 34.7135C121.824 34.3361 120.818 34.0006 119.644 33.7071C118.47 33.3716 117.191 33.0152 115.807 32.6377C114.507 32.3023 113.228 31.9458 111.97 31.5684C110.712 31.149 109.579 30.6039 108.573 29.9329C107.567 29.262 106.749 28.4233 106.12 27.4168C105.533 26.4104 105.239 25.1524 105.239 23.6427C105.239 22.175 105.512 20.854 106.057 19.6798C106.644 18.4637 107.462 17.4363 108.51 16.5976C109.6 15.7589 110.879 15.1299 112.347 14.7106C113.857 14.2493 115.513 14.0186 117.316 14.0186C119.581 14.0186 121.845 14.3751 124.11 15.088C126.07 15.6938 127.818 16.5116 129.354 17.5415C129.811 17.8476 129.917 18.4645 129.618 18.9257L127.74 21.8205C127.41 22.3298 126.718 22.4499 126.204 22.128C125.063 21.4151 123.757 20.8297 122.286 20.3718C120.441 19.7847 118.658 19.4911 116.939 19.4911C115.052 19.4911 113.626 19.8476 112.662 20.5605C111.739 21.2314 111.278 22.1121 111.278 23.2024C111.278 24.3766 111.886 25.2991 113.102 25.9701C114.36 26.5991 116.457 27.2701 119.392 27.983C120.818 28.3184 122.244 28.6959 123.67 29.1152C125.137 29.5346 126.458 30.1216 127.632 30.8765C128.807 31.5894 129.75 32.5119 130.463 33.6442C131.218 34.7345 131.595 36.1393 131.595 37.8586C131.595 39.4102 131.281 40.815 130.652 42.0731C130.023 43.2892 129.142 44.3376 128.01 45.2182C126.878 46.0569 125.515 46.7069 123.921 47.1682C122.328 47.6295 120.566 47.8601 118.637 47.8601Z" fill="white"/>
<path d="M145.431 47.5456C142.537 47.5456 140.168 46.8327 138.323 45.4069C136.52 43.9392 135.618 41.507 135.618 38.1102V20.9798C135.618 20.4008 135.149 19.9315 134.57 19.9315H132.326C131.747 19.9315 131.278 19.4621 131.278 18.8831V16.3468C131.278 15.8956 131.566 15.4924 132 15.3677C132.426 15.2452 132.877 15.1309 133.354 15.0251C133.815 14.928 134.262 14.845 134.695 14.776C135.22 14.6923 135.618 14.247 135.618 13.7154V7.95618C135.618 7.42994 136.008 6.98524 136.53 6.91673L140.661 6.37433C141.288 6.29189 141.845 6.78057 141.845 7.41378V13.5364C141.845 14.1154 142.315 14.5848 142.894 14.5848H151.428C152.007 14.5848 152.476 15.0541 152.476 15.6331V18.8831C152.476 19.4621 152.007 19.9315 151.428 19.9315H142.894C142.315 19.9315 141.845 20.4008 141.845 20.9798V36.978C141.845 38.8651 142.286 40.1651 143.166 40.8779C144.047 41.5908 145.284 41.9473 146.878 41.9473C147.297 41.9473 147.779 41.9263 148.324 41.8844C148.87 41.8425 149.415 41.8005 149.96 41.7586C150.547 41.6747 151.092 41.5908 151.595 41.507C152.269 41.4033 152.916 41.9161 152.916 42.5981V45.7036C152.916 46.1323 152.656 46.5204 152.248 46.6523C151.976 46.7404 151.674 46.8285 151.344 46.9166C150.757 47.0424 150.107 47.1682 149.394 47.294C148.723 47.3779 148.031 47.4408 147.318 47.4827C146.647 47.5246 146.018 47.5456 145.431 47.5456Z" fill="white"/>
<path d="M165.15 47.8601C163.472 47.8601 161.921 47.6295 160.495 47.1682C159.111 46.665 157.916 45.994 156.91 45.1553C155.903 44.2747 155.106 43.2473 154.519 42.0731C153.974 40.857 153.702 39.5151 153.702 38.0473V37.7328C153.702 30.6458 160.327 27.1023 173.579 27.1023H175.361C175.94 27.1023 176.409 26.633 176.409 26.054V25.2782C176.409 23.5169 175.738 22.133 174.396 21.1266C173.096 20.0782 171.293 19.554 168.987 19.554H168.861C167.1 19.554 165.255 19.8686 163.326 20.4976C161.772 20.9705 160.327 21.5931 158.99 22.3654C158.467 22.6678 157.788 22.5079 157.487 21.9837L155.836 19.1039C155.557 18.6169 155.71 17.9947 156.194 17.7109C157.996 16.655 159.89 15.8016 161.879 15.1509C164.227 14.3541 166.659 13.9557 169.176 13.9557H169.427C171.23 13.9557 172.929 14.1864 174.522 14.6477C176.116 15.1089 177.5 15.8218 178.674 16.7863C179.848 17.7089 180.771 18.8831 181.441 20.3089C182.112 21.6927 182.448 23.3072 182.448 25.1524V41.2554C182.448 42.2618 182.553 43.3102 182.762 44.4005C182.863 44.9025 182.978 45.3853 183.107 45.8488C183.304 46.5562 182.793 47.294 182.059 47.294H178.091C177.68 47.294 177.301 47.055 177.179 46.6624C177.075 46.3296 176.987 45.953 176.912 45.5327C176.903 45.4769 176.894 45.4212 176.885 45.3656C176.747 44.5207 175.703 44.1306 175.012 44.6358C173.846 45.4885 172.592 46.1858 171.251 46.7279C169.322 47.4827 167.288 47.8601 165.15 47.8601ZM165.967 42.3876C168.106 42.3876 170.077 41.9683 171.88 41.1296C173.549 40.3532 174.967 39.3614 176.133 38.1539C176.314 37.9667 176.409 37.7145 176.409 37.4543V32.8684C176.409 32.2894 175.94 31.82 175.361 31.82H174.333C169.301 31.82 165.632 32.3023 163.326 33.2668C161.019 34.1893 159.866 35.6361 159.866 37.607V37.7957C159.866 39.1377 160.411 40.2489 161.501 41.1296C162.634 41.9683 164.122 42.3876 165.967 42.3876Z" fill="white"/>
</svg>
