<svg width="182" height="51" viewBox="0 0 182 51" fill="none" xmlns="http://www.w3.org/2000/svg">
<g clip-path="url(#clip0_1801_33764)">
<path opacity="0.8" d="M63.427 11.0117H80.626V14.3787C76.167 14.3787 71.6171 14.3787 67.158 14.3787C66.794 14.4697 66.976 14.9247 66.976 15.1977V24.2977C67.067 24.6617 67.522 24.4797 67.795 24.4797H79.352V27.8467C75.803 27.8467 72.163 27.8467 68.614 27.8467C68.068 27.8467 67.522 27.8467 66.976 27.9377V40.7687C65.793 40.6777 64.701 40.7687 63.518 40.7687V11.5577C63.336 11.5577 63.427 11.0117 63.427 11.0117ZM84.812 11.1027H88.27V31.3047V40.8597C87.087 40.8597 85.995 40.8597 84.812 40.8597C84.721 40.4047 84.721 39.9497 84.721 39.4037L84.812 11.1027ZM119.301 13.5597H122.85V19.5657C124.579 19.5657 126.308 19.4747 128.037 19.6567C127.946 20.7487 128.037 21.8407 128.037 22.8417C126.308 22.8417 124.579 22.8417 122.85 22.8417V34.7627C122.85 35.8547 123.123 37.2197 124.215 37.7657C125.398 38.4937 126.945 38.1297 128.128 37.4927V40.9507C126.854 41.4967 125.398 41.5877 124.033 41.4057C122.122 41.1327 120.211 39.7677 119.665 37.8567C119.301 36.7647 119.392 35.6727 119.392 34.5807V22.9327L119.301 22.8417C118.118 22.7507 116.844 22.8417 115.661 22.8417C115.661 21.7497 115.661 20.6577 115.661 19.5657C116.935 19.5657 118.118 19.6567 119.392 19.5657L119.301 13.5597ZM134.316 13.5597C135.499 13.5597 136.682 13.5597 137.865 13.5597L137.956 13.6507C137.956 15.6527 137.865 17.5637 138.047 19.5657C139.685 19.5657 141.414 19.5657 143.052 19.5657V22.8417C141.323 22.9327 139.685 22.8417 137.956 22.8417V34.9447C137.956 36.0367 138.229 37.2197 139.321 37.7657C140.595 38.4937 142.051 38.1297 143.234 37.4017V40.8597C141.96 41.4057 140.595 41.4967 139.23 41.4057C137.501 41.1327 135.772 40.2227 134.953 38.5847C134.589 37.7657 134.316 36.8557 134.316 35.9457V22.8417C133.133 22.8417 131.859 22.8417 130.676 22.8417V19.5657C131.859 19.5657 133.042 19.5657 134.316 19.5657C134.407 17.5637 134.225 15.5617 134.316 13.5597ZM151.515 19.6567C153.972 18.6557 156.793 18.6557 159.25 19.4747C162.071 20.4757 164.346 22.9327 165.165 25.8447C165.711 27.4827 165.711 29.1207 165.62 30.8497H148.785C148.967 32.6697 149.422 34.4897 150.696 35.8547C152.425 37.9477 155.519 38.6757 158.067 37.8567C159.887 37.3107 161.252 35.9457 162.162 34.3077C163.163 34.7627 164.164 35.3087 165.165 35.7637C163.8 38.4027 161.252 40.4957 158.249 41.1327C155.792 41.5877 153.153 41.5877 150.878 40.4047C147.966 38.9487 145.964 36.0367 145.418 32.8517C144.963 30.3947 145.145 27.8467 146.055 25.5717C147.056 22.9327 148.967 20.7487 151.515 19.6567ZM152.789 22.7507C150.696 23.6607 149.422 25.8447 148.967 28.0287H161.889C161.707 26.5727 161.161 25.1167 160.16 24.1157C158.34 22.0227 155.246 21.6587 152.789 22.7507ZM173.264 23.0237C174.629 19.7477 178.724 18.0187 182 19.3837V23.2057C180.635 22.6597 179.088 22.2957 177.632 22.7507C175.63 23.2967 174.174 25.1167 173.628 27.0277C173.264 28.3017 173.355 29.7577 173.446 31.0317C173.264 32.7607 173.537 34.4897 173.446 36.2187C173.537 37.7657 173.355 39.2217 173.537 40.7687C172.354 40.8597 171.171 40.7687 169.897 40.7687C169.806 36.2187 169.897 31.6687 169.897 27.1187V19.4747C170.989 19.4747 172.172 19.4747 173.264 19.4747C173.264 20.7487 173.082 21.8407 173.264 23.0237ZM93.366 19.5657C94.549 19.6567 95.732 19.4747 97.006 19.6567V32.3057C97.006 33.8527 97.188 35.5817 98.28 36.7647C99.6451 38.3117 102.011 38.5847 103.922 37.9477C106.47 37.0377 108.199 34.3987 108.108 31.6687V19.5657H111.748V40.8597C110.565 40.8597 109.473 40.8597 108.29 40.8597V37.8567C107.562 38.7667 106.743 39.7677 105.742 40.3137C103.558 41.6787 100.828 41.8607 98.371 41.1327C96.824 40.6777 95.459 39.5857 94.64 38.1297C93.73 36.5827 93.457 34.6717 93.457 32.8517L93.366 19.5657Z" fill="#3C4C6A"/>
<path opacity="0.5" d="M25.48 0.000488281H41.223L14.742 26.4815L7.826 33.3065L0 25.4805L25.48 0.000488281ZM25.298 23.6605C25.48 23.3875 25.844 23.4785 26.208 23.4785H41.223L27.482 37.1285L19.565 29.3025L25.298 23.6605Z" fill="#3C4C6A"/>
<path opacity="0.65" d="M11.7393 37.2196L19.5653 29.3936L27.4823 37.2196L19.5653 45.0456L11.7393 37.2196Z" fill="#3C4C6A"/>
<path d="M19.5654 45.0457L27.4824 37.2197L41.1324 50.9607C35.9454 50.9607 30.8494 50.9607 25.6624 50.9607C25.3894 51.0517 25.2074 50.7787 25.0254 50.5967L19.5654 45.0457Z" fill="#3C4C6A"/>
</g>
<defs>
<clipPath id="clip0_1801_33764">
<rect width="182" height="50.96" fill="white" transform="translate(0 0.000488281)"/>
</clipPath>
</defs>
</svg>
