<svg width="112" height="36" viewBox="0 0 112 36" fill="none" xmlns="http://www.w3.org/2000/svg">
<g clip-path="url(#clip0_2251_7)">
<path d="M43.3864 10.5923C42.8175 10.5923 42.2984 10.6681 41.829 10.8195C41.3739 10.9589 40.975 11.1936 40.6322 11.5235C40.303 11.84 40.037 12.2517 39.8343 12.7588C39.6445 13.2651 39.5367 13.8695 39.5111 14.5721C39.4713 15.7121 39.4713 16.852 39.5111 17.9919C39.5367 18.7009 39.6445 19.3054 39.8343 19.8053C40.037 20.3116 40.303 20.7297 40.6322 21.0597C40.9735 21.3762 41.3725 21.6108 41.829 21.7637C42.2984 21.9031 42.8175 21.9728 43.3864 21.9728C43.9453 21.9728 44.4645 21.8971 44.9438 21.7456C45.423 21.5806 45.8348 21.341 46.179 21.0266C46.5345 20.6974 46.814 20.2792 47.0174 19.7722C47.2201 19.2659 47.3214 18.6707 47.3214 17.9866V17.018H44.0115C43.7327 17.018 43.5933 16.8758 43.5933 16.5914V16.3247C43.5933 16.0402 43.7327 15.898 44.0115 15.898H48.0755C48.36 15.898 48.5022 16.0402 48.5022 16.3247V17.9962C48.5022 18.7571 48.3884 19.454 48.1609 20.0869C47.9333 20.7077 47.5977 21.2467 47.1539 21.704C46.7237 22.1591 46.1847 22.5136 45.5368 22.7675C44.8968 23.0078 44.175 23.128 43.3715 23.128C42.548 23.128 41.8262 23.0078 41.2061 22.7675C40.5853 22.5143 40.0598 22.1659 39.6295 21.7221C39.2114 21.2791 38.8885 20.7536 38.661 20.1456C38.4455 19.5247 38.3253 18.8406 38.3004 18.0933C38.2748 17.5244 38.262 16.9227 38.262 16.2884C38.262 15.6484 38.2748 15.0468 38.3004 14.4836C38.326 13.7369 38.4526 13.0592 38.6802 12.4505C38.9077 11.8297 39.2306 11.2978 39.6487 10.8547C40.079 10.4117 40.6045 10.0696 41.2253 9.82857C41.8461 9.57541 42.5615 9.44883 43.3715 9.44883C44.2461 9.44883 44.9935 9.58181 45.6136 9.84777C46.2344 10.1137 46.7411 10.4337 47.1337 10.8078C47.5262 11.1754 47.8178 11.5619 48.0083 11.9673C48.1982 12.3726 48.2995 12.7083 48.3123 12.9742C48.3251 13.088 48.2931 13.1829 48.2163 13.259C48.1403 13.323 48.0389 13.355 47.9123 13.355H47.4942C47.3804 13.355 47.2979 13.3301 47.2467 13.2804C47.1969 13.2164 47.1465 13.115 47.0953 12.9764C46.9943 12.6919 46.8521 12.4075 46.6686 12.123C46.4908 11.8386 46.2512 11.5854 45.9496 11.3635C45.646 11.136 45.2851 10.9521 44.867 10.8121C44.4488 10.6727 43.9546 10.603 43.3843 10.603L43.3864 10.5923ZM52.3551 14.3716C52.8102 13.4969 53.6714 13.0596 54.9386 13.0596H55.6426C55.9214 13.0596 56.0607 13.1989 56.0607 13.4777V13.7444C56.0607 14.0231 55.9214 14.1625 55.6426 14.1625H54.8255C54.0646 14.1625 53.463 14.384 53.0207 14.8271C52.5777 15.2701 52.3562 15.8717 52.3562 16.6319V22.52C52.3562 22.6466 52.3117 22.7479 52.2228 22.824C52.1467 22.9001 52.0454 22.9381 51.9188 22.9381H51.6148C51.336 22.9381 51.1967 22.7988 51.1967 22.52V13.4958C51.1967 13.3693 51.2347 13.2679 51.3108 13.1918C51.3869 13.1029 51.4882 13.0585 51.6148 13.0585H51.9188C52.0454 13.0585 52.1467 13.1029 52.2228 13.1918C52.3117 13.2679 52.3562 13.3693 52.3562 13.4958V14.3705L52.3551 14.3716ZM64.0886 22.9435C63.8099 22.9435 63.6705 22.8041 63.6705 22.5253V21.6325C63.5567 21.8103 63.4049 21.9881 63.215 22.1659C63.0372 22.3436 62.8157 22.5019 62.5505 22.6405C62.2845 22.7799 61.9645 22.8937 61.5905 22.9819C61.2228 23.0829 60.7926 23.1333 60.2998 23.1333C59.8446 23.1333 59.4073 23.0637 58.9877 22.9243C58.5824 22.7728 58.2215 22.5701 57.905 22.3163C57.6014 22.0631 57.3546 21.7655 57.1648 21.4234C56.987 21.0821 56.8981 20.7088 56.8981 20.3034C56.8981 19.8732 56.987 19.4867 57.1648 19.1439C57.3546 18.8026 57.6142 18.505 57.9434 18.2511C58.2727 17.9852 58.6652 17.77 59.1211 17.6058C59.5904 17.428 60.1035 17.3014 60.6603 17.226L63.662 16.8079V16.1434C63.662 15.4593 63.4529 14.9273 63.0347 14.5476C62.6294 14.1679 61.9773 13.978 61.0784 13.978C60.3694 13.978 59.8183 14.1174 59.4251 14.3961C59.0453 14.6621 58.8057 14.9536 58.7061 15.2708C58.6564 15.4223 58.5931 15.53 58.5163 15.594C58.4523 15.6438 58.3634 15.6687 58.2496 15.6687H57.9829C57.8691 15.6687 57.7678 15.6306 57.6789 15.5545C57.6028 15.4657 57.5648 15.3643 57.5648 15.2505C57.5648 15.0728 57.6281 14.8512 57.7546 14.586C57.8812 14.32 58.0839 14.0605 58.3627 13.8073C58.6471 13.5542 59.0144 13.339 59.4645 13.162C59.9076 12.9721 60.4466 12.8772 61.0816 12.8772C61.8283 12.8772 62.4427 12.9785 62.9249 13.1812C63.4184 13.3838 63.8049 13.6498 64.0844 13.979C64.3631 14.2955 64.553 14.65 64.654 15.0425C64.7677 15.4351 64.8246 15.8216 64.8246 16.202V22.5275C64.8246 22.8062 64.6853 22.9456 64.4065 22.9456H64.0833L64.0886 22.9435ZM60.4982 22.0315C60.9284 22.0315 61.3337 21.9618 61.7142 21.8224C62.1067 21.6709 62.4488 21.4494 62.7403 21.1578C63.0248 20.8734 63.2523 20.5061 63.423 20.056C63.588 19.6129 63.6705 19.0938 63.6705 18.4986V17.8532L61.2203 18.1946C59.1182 18.479 58.0672 19.1503 58.0672 20.2085C58.0672 20.5249 58.1369 20.7973 58.2763 21.0256C58.4277 21.2531 58.6176 21.443 58.8459 21.5952C59.0734 21.7467 59.333 21.8604 59.6245 21.9365C59.909 22.0005 60.2006 22.0325 60.4992 22.0325L60.4982 22.0315ZM72.1848 23.1333C71.3869 23.1333 70.7348 22.9911 70.2285 22.7067C69.7221 22.4222 69.3104 22.0677 68.9932 21.6432V26.1446C68.9932 26.4234 68.8539 26.5627 68.5751 26.5627H68.2519C67.9731 26.5627 67.8338 26.4234 67.8338 26.1446V13.4777C67.8338 13.1989 67.9731 13.0596 68.2519 13.0596H68.5751C68.8539 13.0596 68.9932 13.1989 68.9932 13.4777V14.3705C69.3097 13.9403 69.7214 13.5858 70.2285 13.307C70.7348 13.0226 71.3869 12.8804 72.1848 12.8804C72.9194 12.8804 73.5398 13.0133 74.0461 13.2793C74.5653 13.5325 74.9834 13.8745 75.3006 14.3055C75.617 14.7236 75.8446 15.205 75.9832 15.7497C76.1347 16.2817 76.2236 16.8264 76.2499 17.3839C76.2627 17.5738 76.2691 17.7828 76.2691 18.0111C76.2691 18.2387 76.2627 18.4477 76.2499 18.6383C76.2243 19.1973 76.1354 19.7484 75.9832 20.2917C75.8439 20.8236 75.6163 21.305 75.3006 21.736C74.9841 22.1541 74.566 22.4962 74.0461 22.7621C73.5398 23.0153 72.9194 23.1419 72.1848 23.1419V23.1333ZM68.9932 17.3199C68.9804 17.5098 68.974 17.7565 68.974 18.0602C68.974 18.3638 68.9804 18.6106 68.9932 18.8005C69.006 19.1802 69.0693 19.5667 69.1831 19.96C69.3097 20.3397 69.4996 20.6817 69.7527 20.9861C70.0059 21.2898 70.3259 21.5429 70.7127 21.7456C71.0925 21.9355 71.5483 22.0304 72.0802 22.0304C72.6392 22.0304 73.1014 21.9355 73.4669 21.7456C73.8467 21.5557 74.1507 21.3026 74.3789 20.9861C74.6193 20.6569 74.79 20.2835 74.891 19.8661C75.0047 19.4359 75.0744 18.9925 75.1 18.5359C75.1128 18.1804 75.1128 17.8259 75.1 17.4724C75.0744 17.0173 75.0047 16.58 74.891 16.1604C74.79 15.7423 74.6193 15.375 74.3789 15.0585C74.1514 14.7293 73.8474 14.4697 73.4669 14.2799C73.0993 14.0772 72.637 13.9758 72.0802 13.9758C71.5355 13.9758 71.0733 14.0772 70.6935 14.2799C70.3138 14.4825 69.9938 14.7485 69.7335 15.0777C69.4932 15.3942 69.3093 15.7487 69.1821 16.1412C69.0683 16.5338 69.005 16.9263 68.9922 17.3188L68.9932 17.3199ZM80.0153 14.3716C80.3567 13.9286 80.7684 13.5677 81.2505 13.2889C81.7298 13.0101 82.3819 12.8708 83.2068 12.8708C83.8525 12.8708 84.4161 12.9785 84.8975 13.194C85.3768 13.4094 85.7758 13.707 86.0944 14.0868C86.4236 14.4665 86.6704 14.9163 86.8346 15.4361C86.9996 15.9553 87.0821 16.5188 87.0821 17.1268V22.5221C87.0821 22.8009 86.9427 22.9403 86.664 22.9403H86.344C86.0652 22.9403 85.9258 22.8009 85.9258 22.5221V17.2207C85.9258 16.2074 85.6791 15.4159 85.1855 14.8463C84.692 14.2631 83.9702 13.9716 83.0202 13.9716C82.1085 13.9716 81.3803 14.256 80.8356 14.8249C80.2909 15.3938 80.0185 16.1928 80.0185 17.2218V22.5232C80.0185 22.802 79.8791 22.9413 79.6004 22.9413H79.2772C78.9984 22.9413 78.859 22.802 78.859 22.5232V9.86697C78.859 9.58821 78.9984 9.44883 79.2772 9.44883H79.6004C79.8791 9.44883 80.0185 9.58821 80.0185 9.86697V14.3684L80.0153 14.3716ZM94.8316 9.45203C95.5662 9.45203 96.2375 9.55977 96.8455 9.77524C97.4535 9.99071 97.9726 10.32 98.4028 10.763C98.8459 11.1932 99.1879 11.7379 99.429 12.3972C99.6822 13.0429 99.8215 13.8091 99.8471 14.6959C99.8727 15.2648 99.8855 15.7967 99.8855 16.2916C99.8855 16.7851 99.8727 17.3171 99.8471 17.8874C99.7831 19.6986 99.3209 21.0284 98.4604 21.8768L99.6765 23.5867C99.6893 23.6123 99.7021 23.6372 99.7149 23.6614C99.7277 23.687 99.7341 23.7314 99.7341 23.7947C99.7341 23.8957 99.696 23.9846 99.6199 24.0614C99.5438 24.1374 99.4549 24.1755 99.3533 24.1755H98.9351C98.7957 24.1755 98.6756 24.1186 98.5746 24.0048C98.4736 23.9038 98.3911 23.815 98.3271 23.7382L97.4887 22.5787C96.7278 22.9463 95.841 23.1301 94.8284 23.1301C93.2454 23.1301 92.0233 22.706 91.1622 21.8576C90.3138 21.0092 89.864 19.6858 89.8128 17.8874C89.7872 17.3185 89.7744 16.7866 89.7744 16.2916C89.7744 15.7981 89.7872 15.2662 89.8128 14.6959C89.8384 13.8091 89.9714 13.0429 90.2118 12.3972C90.4649 11.7387 90.807 11.1939 91.2379 10.763C91.6809 10.32 92.2001 9.99071 92.7953 9.77524C93.4033 9.55977 94.081 9.45203 94.8284 9.45203H94.8316ZM94.8316 10.5934C94.2997 10.5934 93.8054 10.6759 93.3489 10.8409C92.8938 10.9923 92.4948 11.2391 92.1521 11.5811C91.8107 11.9225 91.5384 12.3598 91.335 12.8932C91.1451 13.4251 91.0374 14.058 91.0118 14.7919C90.999 15.0763 90.9862 15.3423 90.9734 15.5897C90.9734 15.8301 90.9734 16.0648 90.9734 16.2938C90.9734 16.5213 90.9734 16.761 90.9734 17.0127C90.9862 17.2531 90.999 17.5126 91.0118 17.7914C91.0374 18.5381 91.1451 19.1781 91.335 19.7114C91.5377 20.2305 91.8036 20.6608 92.1329 21.0021C92.4742 21.3434 92.8731 21.5966 93.3297 21.7616C93.7848 21.9131 94.284 21.9888 94.8273 21.9888C95.372 21.9888 95.8712 21.9131 96.3249 21.7616C96.7801 21.5966 97.1726 21.3434 97.5026 21.0021C97.8439 20.6608 98.1099 20.2305 98.3004 19.7114C98.5031 19.1795 98.6169 18.5395 98.6418 17.7914C98.6546 17.5126 98.661 17.2531 98.661 17.0127C98.661 16.7595 98.661 16.5199 98.661 16.2938C98.661 16.0662 98.661 15.8315 98.661 15.5897C98.661 15.3494 98.6546 15.0834 98.6418 14.7919C98.6162 14.0573 98.5024 13.4244 98.3004 12.8932C98.1106 12.3612 97.8446 11.9239 97.5026 11.5811C97.1612 11.2398 96.7623 10.993 96.3057 10.8409C95.8506 10.6759 95.3564 10.5934 94.823 10.5934H94.8316ZM104.104 21.8H110.658C110.942 21.8 111.085 21.9422 111.085 22.2267V22.5115C111.085 22.7902 110.942 22.9296 110.658 22.9296H103.326C103.047 22.9296 102.907 22.7902 102.907 22.5115V10.059C102.907 9.78022 103.047 9.64084 103.326 9.64084H103.686C103.965 9.64084 104.104 9.78022 104.104 10.059V21.8ZM3.73022 27.1473L2.4502 26.407L16.7203 1.69189L18.0003 2.43217L3.73022 27.1473Z" fill="black"/>
<path d="M2.15918 24.4336H30.6994V25.9131H2.15918V24.4336Z" fill="black"/>
<path d="M17.0002 33.507L2.72363 25.2647L3.46391 23.9847L17.7394 32.2248L17.0002 33.507ZM29.4014 12.0239L15.126 3.78271L15.8663 2.50269L30.1417 10.745L29.4014 12.0239Z" fill="black"/>
<path d="M3.46684 12.0195L2.72656 10.7395L17.0138 2.50684L17.754 3.78686L3.46684 12.0195Z" fill="black"/>
<path d="M29.1379 27.1473L14.8667 2.43217L16.1467 1.69189L30.4168 26.407L29.1379 27.1473ZM3.29102 9.75817H4.76838V26.2427H3.29102V9.75817ZM28.0979 9.75817H29.5774V26.2427H28.0968L28.0979 9.75817Z" fill="black"/>
<path d="M16.747 32.8809L16.1006 31.7609L28.5168 24.5928L29.1632 25.7128L16.747 32.8809Z" fill="black"/>
<path d="M31.5377 26.724C31.1247 27.4383 30.4451 27.9596 29.6482 28.1734C28.8512 28.3872 28.002 28.276 27.2869 27.8643C26.5726 27.4513 26.0513 26.7717 25.8375 25.9748C25.6237 25.1778 25.7349 24.3286 26.1466 23.6135C26.5596 22.8992 27.2392 22.3779 28.0361 22.1641C28.8331 21.9503 29.6823 22.0615 30.3974 22.4733C31.895 23.3266 32.4017 25.2466 31.5377 26.724ZM6.71375 12.3877C6.30077 13.1021 5.62121 13.6234 4.82425 13.8372C4.02729 14.0509 3.17807 13.9398 2.46301 13.528C1.74867 13.115 1.22738 12.4355 1.0136 11.6385C0.799809 10.8416 0.910986 9.99235 1.32272 9.27728C1.73571 8.56294 2.41527 8.04166 3.21222 7.82787C4.00918 7.61408 4.8584 7.72526 5.57347 8.137C7.06149 8.99035 7.56817 10.9104 6.71482 12.3877M1.33232 26.724C0.476841 25.236 0.984583 23.3383 2.47368 22.4733C3.9617 21.6178 5.85934 22.1255 6.72442 23.6146C7.5799 25.1026 7.07216 27.0003 5.58307 27.8654C4.08544 28.7208 2.1878 28.2131 1.33232 26.724ZM26.1573 12.3877C25.3018 10.8997 25.8096 9.00208 27.2987 8.137C28.7867 7.28152 30.6843 7.78926 31.5494 9.27835C32.4049 10.7664 31.8971 12.664 30.408 13.5291C29.693 13.9408 28.8438 14.052 28.0468 13.8382C27.2498 13.6244 26.5703 13.1021 26.1573 12.3877ZM16.4323 35.4506C14.7128 35.4506 13.3229 34.0607 13.3229 32.3412C13.3229 30.6217 14.716 29.2318 16.4323 29.2318C18.1486 29.2318 19.5417 30.6217 19.5417 32.3412C19.5403 33.1654 19.2123 33.9555 18.6294 34.5383C18.0466 35.1211 17.2566 35.4491 16.4323 35.4506ZM16.4323 6.77591C14.7128 6.77591 13.3229 5.38601 13.3229 3.66652C13.3229 1.94702 14.716 0.557129 16.4323 0.557129C18.1486 0.557129 19.5417 1.94702 19.5417 3.66652C19.5424 4.07505 19.4625 4.47969 19.3065 4.85726C19.1504 5.23483 18.9214 5.57788 18.6326 5.86675C18.3437 6.15563 18.0006 6.38464 17.6231 6.54065C17.2455 6.69666 16.8409 6.77661 16.4323 6.77591Z" fill="black"/>
</g>
<defs>
<clipPath id="clip0_2251_7">
<rect width="112" height="36" fill="white"/>
</clipPath>
</defs>
</svg>
