<svg width="172" height="52" viewBox="0 0 172 52" fill="none" xmlns="http://www.w3.org/2000/svg">
<path d="M151.102 51.0339C150.672 51.0339 150.242 50.9479 149.812 50.6899L145.856 48.3679C145.254 48.0239 145.512 47.9379 145.77 47.8519C146.544 47.5939 146.716 47.5079 147.576 46.9919C147.662 46.9059 147.748 46.9919 147.834 46.9919L150.93 48.7979C151.016 48.8839 151.188 48.8839 151.274 48.7979L163.228 41.9179C163.314 41.8319 163.4 41.7459 163.4 41.5739V27.8139C163.4 27.6419 163.314 27.5559 163.228 27.4699L151.274 20.5899C151.188 20.5039 151.016 20.5039 150.93 20.5899L138.976 27.4699C138.89 27.5559 138.804 27.6419 138.804 27.8139V41.5739C138.804 41.7459 138.89 41.8319 138.976 41.9179L142.244 43.8099C144.05 44.6699 145.082 43.6379 145.082 42.6059V29.0179C145.082 28.8459 145.254 28.6739 145.426 28.6739H146.974C147.146 28.6739 147.318 28.8459 147.318 29.0179V42.6059C147.318 45.0139 146.028 46.3039 143.792 46.3039C143.104 46.3039 142.588 46.3039 141.04 45.5299L137.944 43.7239C137.17 43.2939 136.654 42.4339 136.654 41.5739V27.8139C136.654 26.9539 137.17 26.0939 137.944 25.6639L149.898 18.7839C150.672 18.3539 151.618 18.3539 152.392 18.7839L164.346 25.6639C165.12 26.0939 165.636 26.9539 165.636 27.8139V41.5739C165.636 42.4339 165.12 43.2939 164.346 43.7239L152.392 50.6039C152.048 50.9479 151.532 51.0339 151.102 51.0339Z" fill="#3C4C6A"/>
<path d="M154.8 41.5742C149.554 41.5742 148.522 39.1662 148.522 37.1882C148.522 37.0162 148.694 36.8442 148.866 36.8442H150.414C150.586 36.8442 150.758 36.9302 150.758 37.1022C151.016 38.6502 151.704 39.4242 154.8 39.4242C157.294 39.4242 158.412 38.8222 158.412 37.5322C158.412 36.7582 158.068 36.1562 154.198 35.8122C150.93 35.4682 148.952 34.7802 148.952 32.1142C148.952 29.7062 151.016 28.2442 154.37 28.2442C158.154 28.2442 160.046 29.5342 160.304 32.4582C160.304 32.5442 160.304 32.6302 160.218 32.7162C160.132 32.8022 160.046 32.8022 159.96 32.8022H158.412C158.24 32.8022 158.068 32.7162 158.068 32.5442C157.724 30.9102 156.778 30.3942 154.37 30.3942C151.618 30.3942 151.274 31.3402 151.274 32.0282C151.274 32.8882 151.618 33.1462 155.316 33.6622C159.014 34.1782 160.734 34.8662 160.734 37.4462C160.734 40.1122 158.584 41.5742 154.8 41.5742ZM169.334 26.9542H169.764C170.108 26.9542 170.194 26.6962 170.194 26.6102C170.194 26.2662 169.936 26.2662 169.85 26.2662H169.42L169.334 26.9542ZM168.818 25.8362H169.678C170.022 25.8362 170.538 25.8362 170.538 26.5242C170.538 27.0402 170.194 27.1262 170.022 27.1262C170.366 27.1262 170.366 27.3842 170.452 27.7282C170.452 27.9002 170.538 28.3302 170.624 28.4162H170.108C170.108 28.3302 170.022 27.6422 170.022 27.6422C170.022 27.4702 169.936 27.3842 169.764 27.3842H169.334V28.4162H168.818V25.8362ZM167.786 27.1262C167.786 28.1582 168.646 29.1042 169.678 29.1042C170.71 29.1042 171.57 28.2442 171.57 27.1262C171.57 26.0942 170.71 25.2342 169.592 25.2342C168.474 25.2342 167.786 26.0082 167.786 27.1262ZM172 27.1262C172 28.4162 170.968 29.4482 169.678 29.4482C168.388 29.4482 167.356 28.4162 167.356 27.1262C167.356 25.8362 168.388 24.8042 169.678 24.8042C170.968 24.8042 172 25.8362 172 27.1262Z" fill="#3C4C6A"/>
<path fill-rule="evenodd" clip-rule="evenodd" d="M28.38 27.2976C28.38 26.7816 28.122 26.2656 27.606 26.0076L14.964 18.6976C14.792 18.6116 14.534 18.5256 14.276 18.5256H14.104C13.846 18.5256 13.588 18.6116 13.416 18.6976L0.774 26.0076C0.258 26.2656 0 26.7816 0 27.2976V46.9056C0 47.1636 0.172 47.4216 0.344 47.5936C0.602 47.7656 0.86 47.7656 1.118 47.5936L8.6 43.2936C9.116 43.0356 9.374 42.5196 9.374 42.0036V32.8016C9.374 32.2856 9.632 31.7696 10.148 31.5116L13.33 29.7056C13.588 29.5336 13.846 29.5336 14.104 29.5336C14.362 29.5336 14.62 29.6196 14.878 29.7056L18.06 31.5116C18.49 31.7696 18.834 32.2856 18.834 32.8016V41.9176C18.834 42.4336 19.092 42.9496 19.608 43.2076L27.09 47.5076C27.348 47.6796 27.606 47.6796 27.864 47.5076C28.122 47.3356 28.208 47.0776 28.208 46.8196L28.38 27.2976ZM88.064 37.5316C88.064 37.7036 87.978 37.7896 87.892 37.8756L83.506 40.3696C83.42 40.4556 83.248 40.4556 83.162 40.3696L78.776 37.8756C78.69 37.7896 78.604 37.7036 78.604 37.5316V32.5436C78.604 32.3716 78.69 32.2856 78.776 32.1996L83.162 29.7056C83.248 29.6196 83.42 29.6196 83.506 29.7056L87.892 32.1996C87.978 32.2856 88.064 32.3716 88.064 32.5436V37.5316ZM89.182 0.379578C88.924 0.207578 88.666 0.293578 88.408 0.379578C88.15 0.551578 88.064 0.809578 88.064 1.06758V20.5036C88.064 20.6756 87.978 20.8476 87.806 20.9336C87.634 21.0196 87.462 21.0196 87.29 20.9336L84.108 19.1276C83.678 18.8696 83.076 18.8696 82.56 19.1276L69.918 26.4376C69.488 26.6956 69.144 27.2116 69.144 27.7276V42.3476C69.144 42.8636 69.402 43.3796 69.918 43.6376L82.56 50.9476C82.99 51.2056 83.592 51.2056 84.108 50.9476L96.75 43.6376C97.18 43.3796 97.524 42.8636 97.524 42.3476V5.96958C97.524 5.45358 97.18 4.93758 96.75 4.59358L89.182 0.379578ZM131.322 32.3716C131.752 32.1136 132.096 31.5976 132.096 31.0816V27.5556C132.096 27.0396 131.838 26.5236 131.322 26.2656L118.766 18.9556C118.25 18.6976 117.734 18.6976 117.218 18.9556L104.576 26.2656C104.06 26.5236 103.802 27.0396 103.802 27.5556V42.1756C103.802 42.6916 104.06 43.2076 104.576 43.4656L117.132 50.6036C117.562 50.8616 118.164 50.8616 118.594 50.6036L126.162 46.3896C126.42 46.2176 126.592 45.9596 126.592 45.7016C126.592 45.4436 126.42 45.1856 126.248 45.0136L113.52 37.7896C113.262 37.6176 113.176 37.3596 113.176 37.1016V32.5436C113.176 32.2856 113.348 32.0276 113.52 31.8556L117.476 29.5336C117.734 29.3616 117.992 29.3616 118.25 29.5336L122.206 31.8556C122.464 32.0276 122.55 32.2856 122.55 32.5436V36.1556C122.55 36.4136 122.722 36.6716 122.894 36.8436C123.152 37.0156 123.41 37.0156 123.668 36.8436L131.322 32.3716Z" fill="#3C4C6A"/>
<path fill-rule="evenodd" clip-rule="evenodd" d="M117.82 31.6836C117.906 31.5976 117.992 31.5976 118.078 31.6836L120.486 33.0596C120.572 33.1456 120.658 33.2316 120.658 33.3176V36.1556C120.658 36.2416 120.572 36.3276 120.486 36.4136L118.078 37.7896C117.992 37.8756 117.906 37.8756 117.82 37.7896L115.412 36.4136C115.326 36.3276 115.24 36.2416 115.24 36.1556V33.3176C115.24 33.2316 115.326 33.1456 115.412 33.0596L117.82 31.6836Z" fill="#3C4C6A"/>
<mask id="mask0_1801_33763" style="mask-type:luminance" maskUnits="userSpaceOnUse" x="34" y="18" width="29" height="33">
<path d="M47.9872 18.9556L35.4312 26.1796C35.0012 26.4376 34.6572 26.9536 34.6572 27.4696V42.0036C34.6572 42.5196 34.9152 43.0356 35.4312 43.2936L47.9872 50.6036C48.4172 50.8616 49.0192 50.8616 49.5352 50.6036L62.0912 43.2936C62.5212 43.0356 62.8652 42.5196 62.8652 42.0036V27.5556C62.8652 27.0396 62.6072 26.5236 62.0912 26.2656L49.5352 19.0416C49.2772 18.8696 49.0192 18.8696 48.7612 18.8696C48.5032 18.7836 48.2452 18.8696 47.9872 18.9556Z" fill="white"/>
</mask>
<g mask="url(#mask0_1801_33763)">
<path d="M75.5937 24.9755L40.1617 7.60352L21.9297 44.7555L57.3617 62.1275L75.5937 24.9755Z" fill="#3C4C6A"/>
</g>
<mask id="mask1_1801_33763" style="mask-type:luminance" maskUnits="userSpaceOnUse" x="35" y="18" width="28" height="33">
<path d="M35.002 43.0357C35.088 43.2077 35.26 43.2937 35.432 43.4657L46.268 49.6577L48.074 50.6897C48.332 50.8617 48.676 50.9477 48.934 50.8617C49.02 50.8617 49.106 50.8617 49.192 50.7757L62.436 26.4377C62.35 26.3517 62.178 26.2657 62.092 26.1797L53.836 21.4497L49.45 18.9557C49.364 18.8697 49.192 18.8697 49.02 18.7837L35.002 43.0357Z" fill="white"/>
</mask>
<g mask="url(#mask1_1801_33763)">
<path d="M19.6084 30.1354L44.7204 64.0194L77.8304 39.5954L52.7184 5.71143L19.6084 30.1354Z" fill="#3C4C6A"/>
</g>
<mask id="mask2_1801_33763" style="mask-type:luminance" maskUnits="userSpaceOnUse" x="35" y="18" width="28" height="33">
<path d="M48.5887 18.7832C48.4167 18.7832 48.1587 18.8692 47.9867 18.9552L35.4307 26.1792L49.0187 50.8612C49.1907 50.8612 49.3627 50.7752 49.5347 50.6892L62.0907 43.3792C62.5207 43.1212 62.7787 42.7772 62.8647 42.3472L49.0187 18.7832C48.9327 18.7832 48.8467 18.7832 48.6747 18.7832C48.6747 18.7832 48.6747 18.7832 48.5887 18.7832Z" fill="white"/>
</mask>
<g mask="url(#mask2_1801_33763)">
<path d="M35.4307 18.7832V50.8612H62.7787V18.7832H35.4307Z" fill="#3C4C6A"/>
</g>
</svg>
