<svg width="149" height="24" viewBox="0 0 149 24" fill="none" xmlns="http://www.w3.org/2000/svg">
<path fill-rule="evenodd" clip-rule="evenodd" d="M19.785 0V7.272H22.5V17.62H19.565V24L12.528 17.806V23.951H11.437V17.799L4.392 24V17.535H1.5V7.188H4.384V0L11.437 6.494V0.19H12.527V6.68L19.785 0ZM12.528 9.044V16.363L18.474 21.597V14.44L12.528 9.044ZM11.429 8.964L5.483 14.362V21.597L11.429 16.363V8.965V8.964ZM19.565 16.544H21.409V8.349H13.46L19.565 13.889V16.544ZM10.583 8.264H2.59V16.459H4.39V13.883L10.582 8.263L10.583 8.264ZM5.475 2.476V7.186H10.59L5.475 2.476ZM18.694 2.476L13.579 7.186H18.694V2.476Z" fill="black"/>
<path fill-rule="evenodd" clip-rule="evenodd" d="M70.542 5.218H71.693V7.59H70.203C69.036 7.59 68.167 7.871 67.591 8.433C67.016 8.996 66.728 9.918 66.728 11.201V18.974H64.377V5.271H66.728V7.458C66.728 7.581 66.79 7.643 66.912 7.643C66.981 7.643 67.033 7.626 67.069 7.59C67.1177 7.52751 67.1531 7.4557 67.173 7.379C67.626 5.939 68.75 5.219 70.544 5.219L70.542 5.218ZM85.902 8.156C86.519 9.254 86.83 10.576 86.83 12.122C86.83 13.667 86.521 14.989 85.902 16.087C85.282 17.185 84.482 18.007 83.498 18.551C82.5281 19.0922 81.4347 19.3737 80.324 19.368C78.094 19.368 76.527 18.472 75.621 16.68C75.552 16.54 75.464 16.469 75.359 16.469C75.254 16.469 75.202 16.521 75.202 16.627V23.979H72.851V5.271H75.202V7.616C75.202 7.722 75.254 7.775 75.359 7.775C75.464 7.775 75.55 7.705 75.621 7.564C76.527 5.771 78.094 4.875 80.324 4.875C81.456 4.875 82.514 5.147 83.498 5.692C84.482 6.237 85.283 7.058 85.902 8.156ZM84.478 12.122C84.478 10.505 84.048 9.245 83.186 8.341C82.324 7.437 81.188 6.984 79.776 6.984C78.363 6.984 77.228 7.437 76.366 8.341C75.503 9.246 75.187 10.507 75.187 12.121C75.187 13.737 75.503 14.999 76.365 15.903C77.228 16.808 78.365 17.259 79.775 17.259C81.186 17.259 82.324 16.806 83.186 15.903C84.048 14.999 84.478 13.737 84.478 12.122ZM47.05 8.177C47.668 9.275 47.978 10.597 47.978 12.142C47.978 13.688 47.67 15.01 47.05 16.108C46.431 17.206 45.63 18.027 44.647 18.572C43.6767 19.1133 42.583 19.3948 41.472 19.389C39.242 19.389 37.675 18.493 36.77 16.701C36.7 16.561 36.612 16.489 36.508 16.489C36.403 16.489 36.35 16.542 36.35 16.648V24H34V5.292H36.351V7.637C36.351 7.743 36.404 7.796 36.509 7.796C36.613 7.796 36.699 7.726 36.77 7.584C37.676 5.792 39.243 4.896 41.473 4.896C42.605 4.896 43.663 5.168 44.648 5.713C45.631 6.258 46.431 7.079 47.05 8.177ZM45.627 12.142C45.627 10.526 45.197 9.265 44.334 8.362C43.472 7.458 42.336 7.005 40.924 7.005C39.512 7.005 38.376 7.458 37.514 8.362C36.652 9.267 36.336 10.527 36.336 12.142C36.336 13.757 36.652 15.02 37.514 15.923C38.376 16.829 39.512 17.28 40.924 17.28C42.336 17.28 43.472 16.827 44.334 15.923C45.197 15.02 45.627 13.756 45.627 12.142ZM60.049 14.623H62.531C62.201 15.906 61.525 17.018 60.508 17.957C59.488 18.897 58.029 19.367 56.13 19.367C54.701 19.367 53.444 19.072 52.355 18.483C51.2842 17.9123 50.4068 17.0367 49.834 15.967C49.241 14.878 48.945 13.595 48.945 12.12C48.945 10.644 49.233 9.362 49.808 8.273C50.382 7.184 51.188 6.345 52.225 5.756C53.261 5.168 54.475 4.873 55.869 4.873C57.262 4.873 58.416 5.163 59.383 5.743C60.351 6.323 61.073 7.092 61.551 8.048C62.031 9.007 62.27 10.056 62.27 11.198V12.778H51.427C51.513 14.148 51.971 15.238 52.797 16.046C53.625 16.853 54.736 17.259 56.129 17.259C57.261 17.259 58.129 17.027 58.729 16.561C59.33 16.095 59.769 15.45 60.049 14.623ZM51.454 10.803H59.658C59.658 9.609 59.353 8.673 58.744 7.996C58.134 7.32 57.176 6.981 55.87 6.981C54.65 6.981 53.653 7.311 52.88 7.969C52.105 8.628 51.63 9.573 51.456 10.801L51.454 10.803ZM88.692 18.973H91.044V0H88.69V18.974V18.972L88.692 18.973ZM121.316 3.774H124.063V0.81H121.316V3.776V3.774ZM131.004 16.93C130.578 16.973 130.32 16.996 130.234 16.996C130.181 16.9989 130.128 16.9909 130.079 16.9727C130.029 16.9545 129.983 16.9264 129.945 16.89C129.909 16.8511 129.881 16.8054 129.864 16.7556C129.846 16.7057 129.838 16.6528 129.841 16.6C129.841 16.513 129.863 16.252 129.906 15.822C129.949 15.392 129.972 14.728 129.972 13.834V7.279H133.326L132.666 5.271H129.974V1.581H127.622V5.269H125.065V7.277H127.622V14.491C127.622 16.003 127.989 17.127 128.72 17.865C129.452 18.602 130.566 18.972 132.065 18.972H133.895V16.865H132.98C132.091 16.865 131.433 16.887 131.006 16.931L131.004 16.93ZM144.763 5.268L140.87 16.766C140.817 16.907 140.735 17.092 140.468 17.092C140.2 17.092 140.118 16.907 140.066 16.766L136.173 5.268H133.775L138.283 18.971H139.877C139.956 18.9681 140.035 18.9769 140.112 18.997C140.165 19.014 140.208 19.057 140.243 19.13C140.313 19.235 140.303 19.394 140.217 19.603L139.486 21.605C139.381 21.869 139.181 22.001 138.886 22.001C138.78 22.001 138.537 21.978 138.154 21.935C137.659 21.886 137.161 21.8639 136.664 21.869H134.757V23.976H137.265C138.728 23.976 139.609 23.726 140.367 23.226C141.124 22.726 141.712 21.843 142.131 20.576L147 5.795V5.269L144.763 5.268ZM113.636 10.381L109.953 5.27H107.365V5.797L111.78 11.727L106.398 18.447V18.973H109.038L113.323 13.466L117.321 18.973H119.856V18.447L115.179 12.123L120.249 5.825V5.272H117.609L113.638 10.385L113.636 10.383V10.381ZM121.567 18.971H123.918V5.271H121.568V18.973L121.567 18.971ZM106.505 14.622C106.174 15.905 105.499 17.017 104.481 17.956C103.461 18.896 102.002 19.366 100.104 19.366C98.674 19.366 97.418 19.071 96.329 18.482C95.2578 17.9115 94.3801 17.0358 93.807 15.966C93.214 14.877 92.919 13.594 92.919 12.119C92.919 10.643 93.207 9.361 93.781 8.272C94.355 7.183 95.161 6.344 96.198 5.755C97.234 5.167 98.448 4.872 99.842 4.872C101.236 4.872 102.389 5.162 103.357 5.742C104.324 6.322 105.046 7.091 105.525 8.047C106.004 9.006 106.243 10.055 106.243 11.197V12.777H95.401C95.487 14.147 95.945 15.237 96.772 16.045C97.599 16.852 98.71 17.258 100.104 17.258C101.236 17.258 102.104 17.026 102.704 16.56C103.304 16.094 103.744 15.449 104.023 14.622H106.505ZM95.427 10.802H103.632C103.632 9.608 103.327 8.672 102.717 7.995C102.107 7.319 101.149 6.98 99.844 6.98C98.624 6.98 97.627 7.31 96.853 7.968C96.078 8.627 95.603 9.572 95.429 10.8L95.427 10.802Z" fill="black"/>
</svg>
