<svg width="141" height="50" viewBox="0 0 141 50" fill="none" xmlns="http://www.w3.org/2000/svg">
<path fill-rule="evenodd" clip-rule="evenodd" d="M122.729 43.2124V49.6711H134.376C136.762 49.6711 140.858 47.9226 141 43.034V40.5362C141 36.3613 137.581 33.8991 134.376 33.8991H128.57V30.9018H140.074V24.4074H129.033C126.184 24.4074 122.373 26.7625 122.373 31.1515V33.3996C122.373 37.7886 126.148 40.0366 129.033 40.0366C137.047 40.0723 127.11 40.0366 134.518 40.0366V43.1768M60.3319 41.6424C60.3319 41.6424 66.5645 41.1071 66.5645 33.0427C66.5645 24.9783 59.0141 24.229 59.0141 24.229H45.4092V49.6711H52.2473V43.5336L58.1594 49.6711H68.274L60.3319 41.6424ZM57.6964 36.4326H52.2473V30.6163H57.732C57.732 30.6163 59.2634 31.1872 59.2634 33.5066C59.2634 35.826 57.6964 36.4326 57.6964 36.4326ZM83.4461 24.4074H76.5011C71.5506 24.4074 69.8767 28.9035 69.8767 31.0445V49.6711H76.8217V45.2107H83.3392V49.6711H90.0704V31.0445C90.0704 25.6206 85.1556 24.4074 83.4461 24.4074ZM83.3392 38.0027H76.786V31.8295C76.786 31.8295 76.786 30.4379 78.9586 30.4379H81.3448C83.268 30.4379 83.3036 31.8295 83.3036 31.8295V38.0027H83.3392Z" fill="#3C4C6A"/>
<path d="M100.47 24.4072H93.2402V49.6709H100.47V24.4072Z" fill="#3C4C6A"/>
<path fill-rule="evenodd" clip-rule="evenodd" d="M110.62 43.1409V24.4072H103.426V43.1409V49.6709H110.62H120.343V43.1409H110.62Z" fill="#3C4C6A"/>
<path fill-rule="evenodd" clip-rule="evenodd" d="M2.49316 49.6706H30.6291C30.6291 49.6706 25.2512 25.0849 43.0587 15.1293C46.9407 13.2381 59.2992 6.17286 79.5285 21.1598C80.1696 20.6245 80.775 20.1963 80.775 20.1963C80.775 20.1963 62.2552 1.67678 41.6341 3.74641C31.2345 4.67417 18.4843 14.1302 11.0052 26.6193C3.526 39.1084 2.49316 49.6706 2.49316 49.6706ZM61.1155 5.74466L61.258 3.35389C60.9375 3.17548 60.0471 2.74728 57.8033 2.10498L57.6609 4.46007C58.8362 4.85258 59.9759 5.28078 61.1155 5.74466Z" fill="#3C4C6A"/>
<path fill-rule="evenodd" clip-rule="evenodd" d="M57.732 13.3098L57.5895 15.5579C58.7648 15.5935 59.9401 15.7363 61.1154 15.9861L61.2579 13.7737C60.047 13.5239 58.8717 13.3812 57.732 13.3098ZM44.5544 2.17667H44.9106L44.1983 0C43.0942 0 41.9545 0.0713663 40.7792 0.214099L41.4559 2.31941C42.4888 2.21236 43.5216 2.17667 44.5544 2.17667ZM46.264 15.3081L47.0831 17.7702C48.1159 17.2706 49.1488 16.8425 50.1816 16.5213L49.3981 14.1662C48.1872 14.523 47.1543 14.9156 46.264 15.3081ZM30.0947 5.9234L28.492 3.46127C27.6017 3.92515 26.6757 4.42471 25.7141 4.99564L27.3524 7.49346C28.2784 6.92253 29.1687 6.38729 30.0947 5.9234ZM37.3958 21.9808L39.1053 24.55C39.7108 23.6579 40.4231 22.8372 41.2066 22.0165L39.6039 19.5901C38.7848 20.3394 38.0369 21.1601 37.3958 21.9808ZM32.2316 33.4708L35.1164 35.7545C35.2589 34.3629 35.5082 32.9712 35.8644 31.5796L33.3001 29.5457C32.8371 30.8659 32.5165 32.1862 32.2316 33.4708ZM16.6322 16.5213L14.1036 14.3089C13.1776 15.201 12.2872 16.0931 11.468 16.9852L14.2104 19.3403C14.9583 18.3768 15.7775 17.4134 16.6322 16.5213ZM5.87648 32.4717L1.78075 30.973C1.10407 32.5074 0.356151 34.2915 0 35.255L4.09573 36.7537C4.55873 35.5404 5.30664 33.792 5.87648 32.4717ZM31.6974 42.5343C31.7686 44.4255 31.9467 45.9599 32.1248 47.0304L36.3986 48.5648C36.078 47.1731 35.7575 45.6031 35.5438 43.926L31.6974 42.5343Z" fill="#3C4C6A"/>
</svg>
