<svg width="178" height="60" viewBox="0 0 178 60" fill="none" xmlns="http://www.w3.org/2000/svg">
<path d="M39.4937 29.8116C39.4937 33.138 36.7971 35.8346 33.4707 35.8346C30.1443 35.8346 27.4477 33.138 27.4477 29.8116C27.4477 26.4851 30.1443 23.7885 33.4707 23.7885C36.7971 23.7885 39.4937 26.4851 39.4937 29.8116Z" fill="#3C4C6A" stroke="#3C4C6A" stroke-width="0.06928"/>
<path fill-rule="evenodd" clip-rule="evenodd" d="M33.4708 17.4951C41.604 17.4951 49.1595 18.6622 54.8564 20.6234C61.7203 22.9864 65.9405 26.5682 65.9405 29.8116C65.9405 33.1914 61.4679 36.9965 54.097 39.4387C48.5244 41.285 41.1913 42.2488 33.4708 42.2488C25.5552 42.2488 18.0595 41.3441 12.4241 39.4184C5.29434 36.9814 1 33.127 1 29.8116C1 26.5946 5.02941 23.0404 11.7968 20.681C17.5149 18.6874 25.257 17.4951 33.4697 17.4951H33.4708Z" stroke="#3C4C6A" stroke-width="1.66272"/>
<path fill-rule="evenodd" clip-rule="evenodd" d="M22.7494 23.6884C26.8126 16.6429 31.5979 10.6808 36.1429 6.72554C41.6189 1.96003 46.8301 0.0937269 49.6396 1.71382C52.5675 3.40227 53.6294 9.17784 52.0627 16.7829C50.8793 22.5327 48.0497 29.3665 44.1927 36.0545C40.2381 42.9117 35.71 48.953 31.227 52.8716C25.5541 57.8305 20.0697 59.6251 17.1977 57.9688C14.4108 56.3628 13.345 51.0957 14.682 44.0544C15.8116 38.1051 18.6464 30.8028 22.748 23.6883L22.7494 23.6884Z" stroke="#3C4C6A" stroke-width="1.66272"/>
<path fill-rule="evenodd" clip-rule="evenodd" d="M22.7591 36.0727C18.6845 29.0352 15.9102 21.9103 14.7522 15.9975C13.3583 8.87324 14.3439 3.42623 17.1508 1.80142C20.0758 0.108027 25.6099 2.07238 31.4162 7.22791C35.8061 11.1257 40.314 16.9889 44.1822 23.6707C48.1481 30.5212 51.1205 37.4616 52.2768 43.3025C53.7399 50.6939 52.5557 56.3415 49.6863 58.0025C46.9022 59.6143 41.8074 57.9079 36.3749 53.2329C31.7848 49.2832 26.8741 43.1801 22.7591 36.0726V36.0727Z" stroke="#3C4C6A" stroke-width="1.66272"/>
<path fill-rule="evenodd" clip-rule="evenodd" d="M100.128 45.6374L92.7003 34.2433C96.454 33.9069 99.8364 31.1452 99.8364 26.0996C99.8364 20.9655 96.2483 17.6797 91.2148 17.6797H80.1611V45.6162H83.5853V34.516H89.0721L96.0844 45.6162L100.128 45.6374ZM90.8051 31.4798H83.5871V20.7991H90.8051C94.0654 20.7991 96.2919 22.9766 96.2919 26.1191C96.2919 29.2615 94.0637 31.4833 90.8051 31.4833V31.4798ZM112.874 46.1385C116.134 46.1385 118.814 45.0497 120.795 43.0403L119.309 40.9867C117.74 42.6207 115.432 43.5413 113.164 43.5413C108.875 43.5413 106.233 40.3582 105.986 36.5483H122.113V35.7517C122.113 29.6793 118.565 24.9028 112.541 24.9028C106.849 24.9028 102.725 29.6368 102.725 35.5003C102.725 41.8258 106.974 46.1225 112.872 46.1225L112.874 46.1385ZM119.064 34.2415H105.987C106.153 31.1434 108.254 27.4964 112.505 27.4964C117.043 27.4964 119.022 31.2248 119.064 34.2415ZM142.66 45.6357V31.7294C142.66 26.829 139.155 24.901 134.947 24.901C131.686 24.901 129.13 25.9898 126.986 28.2524L128.43 30.4299C130.203 28.5038 132.143 27.6239 134.535 27.6239C137.422 27.6239 139.569 29.173 139.569 31.8958V35.5392C137.959 33.6538 135.691 32.7739 132.968 32.7739C129.585 32.7739 125.994 34.9107 125.994 39.4341C125.994 43.8317 129.582 46.1367 132.968 46.1367C135.649 46.1367 137.919 45.1736 139.569 43.3306V45.6321L142.66 45.6357ZM134.082 43.8759C131.195 43.8759 129.172 42.0347 129.172 39.4783C129.172 36.8812 131.195 35.0382 134.082 35.0382C136.268 35.0382 138.371 35.8756 139.569 37.5521V41.3638C138.373 43.0385 136.268 43.8759 134.082 43.8759ZM157.619 46.1385C161.249 46.1385 163.393 44.6301 164.921 42.6207L162.858 40.6946C161.538 42.495 159.847 43.3324 157.802 43.3324C153.553 43.3324 150.915 39.9811 150.915 35.5003C150.915 31.0195 153.555 27.7106 157.802 27.7106C159.865 27.7106 161.556 28.5073 162.858 30.3485L164.921 28.4223C163.395 26.4112 161.249 24.9046 157.619 24.9046C151.679 24.9046 147.678 29.5129 147.678 35.5021C147.678 41.5337 151.679 46.1243 157.619 46.1243V46.1385ZM174.287 46.1385C176.1 46.1385 177.216 45.5932 178 44.8408L177.094 42.495C176.681 42.9553 175.873 43.3324 174.989 43.3324C173.629 43.3324 172.967 42.2436 172.967 40.7353V28.1692H177.012V25.4056H172.967V19.8767H169.872V25.4056H166.572V28.1709H169.872V41.408C169.872 44.4247 171.358 46.142 174.287 46.142V46.1385Z" fill="#3C4C6A"/>
</svg>
